<?xml version="1.0" encoding="UTF-8" standalone="no"?>
<!-- Created with Inkscape (http://www.inkscape.org/) -->

<svg
   xmlns:dc="http://purl.org/dc/elements/1.1/"
   xmlns:cc="http://creativecommons.org/ns#"
   xmlns:rdf="http://www.w3.org/1999/02/22-rdf-syntax-ns#"
   xmlns:svg="http://www.w3.org/2000/svg"
   xmlns="http://www.w3.org/2000/svg"
   xmlns:sodipodi="http://sodipodi.sourceforge.net/DTD/sodipodi-0.dtd"
   xmlns:inkscape="http://www.inkscape.org/namespaces/inkscape"
   width="256"
   height="256"
   viewBox="0 0 256 256"
   id="svg2"
   version="1.1"
   inkscape:version="0.91 r13725"
   sodipodi:docname="default-album-art.svg">
  <defs
     id="defs4" />
  <sodipodi:namedview
     id="base"
     pagecolor="#ffffff"
     bordercolor="#666666"
     borderopacity="1.0"
     inkscape:pageopacity="0.0"
     inkscape:pageshadow="2"
     inkscape:zoom="2.8"
     inkscape:cx="99.29232"
     inkscape:cy="131.24441"
     inkscape:document-units="px"
     inkscape:current-layer="layer1"
     showgrid="false"
     units="px"
     inkscape:window-width="1920"
     inkscape:window-height="1051"
     inkscape:window-x="0"
     inkscape:window-y="29"
     inkscape:window-maximized="1" />
  <metadata
     id="metadata7">
    <rdf:RDF>
      <cc:Work
         rdf:about="">
        <dc:format>image/svg+xml</dc:format>
        <dc:type
           rdf:resource="http://purl.org/dc/dcmitype/StillImage" />
        <dc:title></dc:title>
      </cc:Work>
    </rdf:RDF>
  </metadata>
  <g
     inkscape:label="Layer 1"
     inkscape:groupmode="layer"
     id="layer1"
     transform="translate(0,-796.36216)">
    <rect
       style="opacity:1;fill:#ff6600;fill-opacity:1;stroke:none"
       id="rect4153"
       width="256"
       height="256"
       x="-256"
       y="796.36218"
       transform="scale(-1,1)" />
    <path
       style="fill:#222222;fill-opacity:1"
       d="m 11.56135,1040.0946 c -0.23624,-0.6206 -0.32536,-53.17086 -0.19806,-116.77836 l 0.23147,-115.65 116.55001,0 116.55,0 0,116.55 0,116.54996 -116.35195,0.2284 c -92.6075,0.1818 -116.43961,0 -116.78147,-0.9 z m 119.73342,-50.4912 c 12.44576,-3.5077 21.2927,-8.61329 30.40903,-17.5491 10.33707,-10.1324 16.15119,-20.69402 19.00939,-34.53148 3.46787,-16.789 0.21606,-34.6378 -8.90952,-48.90338 -9.41941,-14.72491 -23.70795,-25.03285 -41.8589,-30.19759 -5.52328,-1.57161 -24.40663,-1.57248 -30.53552,-10e-4 -24.64241,6.31681 -43.89162,25.06686 -50.02203,48.72489 -4.33912,16.74523 -1.65083,36.59019 6.91883,51.07476 4.14193,7.00074 15.13697,18.3653 21.90133,22.63737 6.73301,4.25229 14.85327,7.66842 21.35419,8.98355 2.60326,0.52663 5.54319,1.14509 6.53319,1.37434 3.34235,0.77398 20.66626,-0.33416 25.20001,-1.61195 z m -23.5056,-35.58808 c -8.68702,-2.23833 -16.70641,-8.92389 -20.44082,-17.04098 -2.73654,-5.94815 -2.73654,-17.76805 0,-23.7162 2.75039,-5.97824 8.65551,-11.99977 14.56784,-14.85503 4.27055,-2.06239 6.29572,-2.45932 12.72857,-2.49474 6.58803,-0.0363 8.35485,0.30401 12.72737,2.45129 5.95041,2.92217 11.85492,8.97257 14.53921,14.89848 1.44678,3.19393 1.91548,6.05179 1.9448,11.8581 0.0332,6.58385 -0.30887,8.35761 -2.45479,12.72736 -2.93476,5.97604 -9.01007,11.88976 -14.88398,14.48806 -4.54814,2.01186 -14.11614,2.87202 -18.7282,1.68366 z m 14.42156,-20.74965 c 2.36388,-2.3639 2.78404,-3.45794 2.78404,-7.24943 0,-3.84326 -0.40993,-4.87531 -2.94231,-7.40769 -2.53238,-2.53238 -3.56443,-2.94231 -7.4077,-2.94231 -3.84326,0 -4.87531,0.40993 -7.40769,2.94231 -2.52249,2.52248 -2.94231,3.57157 -2.94231,7.35249 0,4.62641 2.29395,8.28312 6.3,10.04264 3.36506,1.47797 8.64437,0.23359 11.61597,-2.73801 z m 65.37865,52.45319 c 6.05451,-5.46988 6.08544,-5.93845 0.76347,-11.56564 -2.56805,-2.71534 -5.30386,-4.93698 -6.07957,-4.93698 -1.55789,0 -9.12851,7.038 -9.12851,8.48629 0,0.77478 9.82214,11.31371 10.54424,11.31371 0.13782,0 1.89299,-1.48382 3.90037,-3.29738 z m 13.13187,-13.12762 c 1.83651,-1.60875 4.4831,-4.72554 5.88132,-6.9262 l 2.5422,-4.0012 0,-45.79303 0,-45.79303 -2.63077,-2.63077 c -3.53701,-3.53701 -7.40145,-3.53701 -10.93846,0 l -2.63077,2.63077 0,43.39358 0,43.39359 -3.70452,4.01892 -3.70451,4.01893 5.25133,5.30672 c 2.88825,2.9187 5.55369,5.30672 5.92321,5.30672 0.36952,0 2.17445,-1.31625 4.01097,-2.925 z"
       id="path4147"
       inkscape:connector-curvature="0" />
  </g>
</svg>
