<?xml version="1.0" encoding="UTF-8" standalone="no"?>
<!-- Created with Inkscape (http://www.inkscape.org/) -->

<svg
   xmlns:dc="http://purl.org/dc/elements/1.1/"
   xmlns:cc="http://creativecommons.org/ns#"
   xmlns:rdf="http://www.w3.org/1999/02/22-rdf-syntax-ns#"
   xmlns:svg="http://www.w3.org/2000/svg"
   xmlns="http://www.w3.org/2000/svg"
   xmlns:sodipodi="http://sodipodi.sourceforge.net/DTD/sodipodi-0.dtd"
   xmlns:inkscape="http://www.inkscape.org/namespaces/inkscape"
   width="256"
   height="256"
   viewBox="0 0 256 256"
   id="svg2"
   version="1.1"
   inkscape:version="0.91 r13725"
   sodipodi:docname="default-album-art.svg">
  <defs
     id="defs4" />
  <sodipodi:namedview
     id="base"
     pagecolor="#ffffff"
     bordercolor="#666666"
     borderopacity="1.0"
     inkscape:pageopacity="0.0"
     inkscape:pageshadow="2"
     inkscape:zoom="2"
     inkscape:cx="150.24241"
     inkscape:cy="115.03246"
     inkscape:document-units="px"
     inkscape:current-layer="g4144"
     showgrid="false"
     units="px"
     inkscape:window-width="1920"
     inkscape:window-height="1051"
     inkscape:window-x="0"
     inkscape:window-y="29"
     inkscape:window-maximized="1"
     showguides="true"
     inkscape:guide-bbox="true" />
  <metadata
     id="metadata7">
    <rdf:RDF>
      <cc:Work
         rdf:about="">
        <dc:format>image/svg+xml</dc:format>
        <dc:type
           rdf:resource="http://purl.org/dc/dcmitype/StillImage" />
        <dc:title />
      </cc:Work>
    </rdf:RDF>
  </metadata>
  <g
     inkscape:groupmode="layer"
     id="layer2"
     inkscape:label="New"
     style="display:inline">
    <path
       style="opacity:1;fill:#ff6600;fill-opacity:1;stroke:none;stroke-width:1;stroke-linecap:butt;stroke-linejoin:miter;stroke-miterlimit:4;stroke-dasharray:none;stroke-dashoffset:0;stroke-opacity:1"
       clip-path="none"
       d="M 0 0 L 0 256 L 256 256 L 256 0 L 0 0 z M 16 16 L 240 16 L 240 240 L 16 240 L 16 16 z "
       id="rect4142" />
    <g
       id="g4315">
      <g
         transform="translate(-12,0)"
         id="g4144">
        <path
           style="opacity:1;fill:#ff6600;fill-opacity:1;stroke:none;stroke-width:1;stroke-linecap:butt;stroke-linejoin:miter;stroke-miterlimit:4;stroke-dasharray:none;stroke-dashoffset:0;stroke-opacity:1"
           d="M 116 64 A 64 64 0 0 0 52 128 A 64 64 0 0 0 116 192 A 64 64 0 0 0 180 128 A 64 64 0 0 0 116 64 z M 116 104 A 24 24 0 0 1 140 128 A 24 24 0 0 1 116 152 A 24 24 0 0 1 92 128 A 24 24 0 0 1 116 104 z "
           transform="translate(12,0)"
           id="path4158" />
        <circle
           style="opacity:1;fill:#ff6600;fill-opacity:1;stroke:none;stroke-width:1;stroke-linecap:butt;stroke-linejoin:miter;stroke-miterlimit:4;stroke-dasharray:none;stroke-dashoffset:0;stroke-opacity:1"
           id="path4162"
           cx="128"
           cy="128"
           r="8" />
      </g>
      <g
         transform="matrix(0.75,0,0,0.75,59.125,29.988124)"
         style="fill:#ff6600;fill-opacity:1;stroke:none"
         id="g4182">
        <path
           style="fill:#ff6600;fill-opacity:1;fill-rule:evenodd;stroke:none;stroke-width:1px;stroke-linecap:butt;stroke-linejoin:miter;stroke-opacity:1"
           d="m 189.79352,200.73198 -17.14203,16.83126 -16.98483,-16.98561 17.22917,-16.8125 z m -9.98453,-23.73061 6.02434,-5.75707 0,-124.580037 c 0.125,-15.5 24,-15.8125 24,0 l 0,134.519037 -13.08713,12.77206"
           id="path4151"
           inkscape:connector-curvature="0"
           sodipodi:nodetypes="ccccccccccc" />
      </g>
    </g>
  </g>
</svg>
